# xmcd CD database file
# Copyright (C) 1993-1998 Ti Kan
#
# Track frame offsets:
#	150
#	13662
#	29344
#	44894
#	62419
#	73916
#	85314
#	98721
#	112634
#	127714
#	141404
#	155341
#	168354
#	184827
#
# Disc length: 2714 seconds
#
# Revision: 1
# Processed by: cddbd v1.4b41PL1 Copyright (c) Steve Scherf et al.
# Submitted via: CDValet v3.31 - Copyright (c) 1997 Greg Leichner
#
DISCID=b70a980e
DTITLE=Si Tu Me Dices Ven  (Son de México) - José Antonio Herná
DTITLE=ndez
DYEAR=1900
DGENRE=
TTITLE0=Si Tu Me Dices Ven
TTITLE1=Mira Que Linda Eres
TTITLE2=Door De Ausencia
TTITLE3=El Nido
TTITLE4=Angustia
TTITLE5=No Se Si Tu
TTITLE6=Perdón
TTITLE7=Interrogación
TTITLE8=Aún La Quiero
TTITLE9=Corazón De Acero
TTITLE10=Pa´ Que Volviste
TTITLE11=Imploración
TTITLE12=Perdámonos
TTITLE13=El Divorcio
EXTD=
EXTT0=
EXTT1=
EXTT2=
EXTT3=
EXTT4=
EXTT5=
EXTT6=
EXTT7=
EXTT8=
EXTT9=
EXTT10=
EXTT11=
EXTT12=
EXTT13=
PLAYORDER=
